<mxfile host="app.diagrams.net" modified="2020-12-09T02:30:05.995Z" agent="5.0 (Macintosh; Intel Mac OS X 10_14_5) AppleWebKit/537.36 (KHTML, like Gecko) Chrome/86.0.4240.198 Safari/537.36" etag="lOki8ec4Av8FzmFlFvRJ" version="13.10.9" type="github">
  <diagram id="gFzbcCgfVnX1gv_KgOCA" name="Page-1">
    <mxGraphModel dx="1426" dy="771" grid="1" gridSize="10" guides="1" tooltips="1" connect="1" arrows="1" fold="1" page="1" pageScale="1" pageWidth="3300" pageHeight="4681" background="#114B5F" math="0" shadow="0">
      <root>
        <mxCell id="0" />
        <mxCell id="1" parent="0" />
        <mxCell id="__iD03UM-kbbcVY5Mj3p-1" value="hhz-platform" style="rounded=1;whiteSpace=wrap;html=1;sketch=0;strokeColor=#028090;fillColor=#F45B69;fontColor=#E4FDE1;" parent="1" vertex="1">
          <mxGeometry x="510" y="270" width="120" height="120" as="geometry" />
        </mxCell>
        <mxCell id="__iD03UM-kbbcVY5Mj3p-2" value="hyx-platform" style="rounded=1;whiteSpace=wrap;html=1;sketch=0;strokeColor=#028090;fillColor=#F45B69;fontColor=#E4FDE1;" parent="1" vertex="1">
          <mxGeometry x="760" y="270" width="120" height="120" as="geometry" />
        </mxCell>
        <mxCell id="__iD03UM-kbbcVY5Mj3p-3" value="hhz-executor" style="rounded=1;whiteSpace=wrap;html=1;sketch=0;strokeColor=#028090;fillColor=#F45B69;fontColor=#E4FDE1;" parent="1" vertex="1">
          <mxGeometry x="510" y="460" width="120" height="60" as="geometry" />
        </mxCell>
        <mxCell id="__iD03UM-kbbcVY5Mj3p-4" value="hhz-im-service" style="rounded=1;whiteSpace=wrap;html=1;sketch=0;strokeColor=#028090;fillColor=#F45B69;fontColor=#E4FDE1;" parent="1" vertex="1">
          <mxGeometry x="990" y="300" width="120" height="60" as="geometry" />
        </mxCell>
        <mxCell id="__iD03UM-kbbcVY5Mj3p-5" value="hhz-search-fullindex" style="rounded=1;whiteSpace=wrap;html=1;sketch=0;strokeColor=#028090;fillColor=#F45B69;fontColor=#E4FDE1;" parent="1" vertex="1">
          <mxGeometry x="990" y="460" width="150" height="60" as="geometry" />
        </mxCell>
        <mxCell id="__iD03UM-kbbcVY5Mj3p-6" value="hhz-search-deltaindex" style="rounded=1;whiteSpace=wrap;html=1;sketch=0;strokeColor=#028090;fillColor=#F45B69;fontColor=#E4FDE1;" parent="1" vertex="1">
          <mxGeometry x="990" y="380" width="150" height="60" as="geometry" />
        </mxCell>
        <mxCell id="__iD03UM-kbbcVY5Mj3p-7" value="hhz-search-service" style="rounded=1;whiteSpace=wrap;html=1;sketch=0;strokeColor=#028090;fillColor=#F45B69;fontColor=#E4FDE1;" parent="1" vertex="1">
          <mxGeometry x="320" y="300" width="120" height="60" as="geometry" />
        </mxCell>
        <mxCell id="__iD03UM-kbbcVY5Mj3p-8" value="post-xianyu&lt;br&gt;闲鱼发帖服务" style="rounded=1;whiteSpace=wrap;html=1;sketch=0;strokeColor=#028090;fillColor=#F45B69;fontColor=#E4FDE1;" parent="1" vertex="1">
          <mxGeometry x="990" y="540" width="120" height="60" as="geometry" />
        </mxCell>
        <mxCell id="__iD03UM-kbbcVY5Mj3p-9" value="&lt;br&gt;&lt;br&gt;&lt;br&gt;&lt;br&gt;&lt;br&gt;客户端" style="rounded=1;whiteSpace=wrap;html=1;sketch=0;strokeColor=#028090;fillColor=#F45B69;fontColor=#E4FDE1;" parent="1" vertex="1">
          <mxGeometry x="440" y="90" width="470" height="110" as="geometry" />
        </mxCell>
        <mxCell id="__iD03UM-kbbcVY5Mj3p-17" value="&lt;span style=&quot;color: rgb(228 , 253 , 225)&quot;&gt;fe-flashrent-banner&lt;/span&gt;&lt;br style=&quot;color: rgb(228 , 253 , 225)&quot;&gt;&lt;span style=&quot;color: rgb(228 , 253 , 225)&quot;&gt;广告栏&lt;/span&gt;" style="shape=ext;double=1;rounded=1;whiteSpace=wrap;html=1;sketch=0;fillColor=#6a00ff;strokeColor=#3700CC;fontColor=#ffffff;" parent="1" vertex="1">
          <mxGeometry x="460" y="110" width="140" height="50" as="geometry" />
        </mxCell>
        <mxCell id="__iD03UM-kbbcVY5Mj3p-18" value="&lt;span style=&quot;color: rgb(228 , 253 , 225)&quot;&gt;fe-hyx&lt;/span&gt;&lt;br style=&quot;color: rgb(228 , 253 , 225)&quot;&gt;&lt;span style=&quot;color: rgb(228 , 253 , 225)&quot;&gt;Web端&lt;/span&gt;" style="shape=ext;double=1;rounded=1;whiteSpace=wrap;html=1;sketch=0;fillColor=#6a00ff;strokeColor=#3700CC;fontColor=#ffffff;" parent="1" vertex="1">
          <mxGeometry x="620" y="110" width="130" height="50" as="geometry" />
        </mxCell>
        <mxCell id="__iD03UM-kbbcVY5Mj3p-19" value="" style="endArrow=classic;html=1;fontColor=#E4FDE1;exitX=0;exitY=0.5;exitDx=0;exitDy=0;entryX=1;entryY=0.5;entryDx=0;entryDy=0;fillColor=#fff2cc;strokeColor=#d6b656;" parent="1" source="__iD03UM-kbbcVY5Mj3p-1" target="__iD03UM-kbbcVY5Mj3p-7" edge="1">
          <mxGeometry width="50" height="50" relative="1" as="geometry">
            <mxPoint x="660" y="430" as="sourcePoint" />
            <mxPoint x="710" y="380" as="targetPoint" />
            <Array as="points" />
          </mxGeometry>
        </mxCell>
        <mxCell id="__iD03UM-kbbcVY5Mj3p-20" value="&lt;span style=&quot;color: rgb(228 , 253 , 225)&quot;&gt;fe-miniapp&lt;/span&gt;&lt;br style=&quot;color: rgb(228 , 253 , 225)&quot;&gt;&lt;span style=&quot;color: rgb(228 , 253 , 225)&quot;&gt;小程序&lt;/span&gt;" style="shape=ext;double=1;rounded=1;whiteSpace=wrap;html=1;sketch=0;fillColor=#6a00ff;strokeColor=#3700CC;fontColor=#ffffff;" parent="1" vertex="1">
          <mxGeometry x="770" y="110" width="130" height="50" as="geometry" />
        </mxCell>
        <mxCell id="__iD03UM-kbbcVY5Mj3p-21" value="" style="endArrow=classic;html=1;strokeColor=#d6b656;fillColor=#fff2cc;fontColor=#E4FDE1;exitX=0.5;exitY=1;exitDx=0;exitDy=0;entryX=0.5;entryY=0;entryDx=0;entryDy=0;" parent="1" source="__iD03UM-kbbcVY5Mj3p-9" target="__iD03UM-kbbcVY5Mj3p-1" edge="1">
          <mxGeometry width="50" height="50" relative="1" as="geometry">
            <mxPoint x="580" y="320" as="sourcePoint" />
            <mxPoint x="630" y="270" as="targetPoint" />
          </mxGeometry>
        </mxCell>
        <mxCell id="__iD03UM-kbbcVY5Mj3p-22" value="" style="endArrow=classic;html=1;strokeColor=#d6b656;fillColor=#fff2cc;fontColor=#E4FDE1;entryX=0.5;entryY=0;entryDx=0;entryDy=0;" parent="1" target="__iD03UM-kbbcVY5Mj3p-2" edge="1">
          <mxGeometry width="50" height="50" relative="1" as="geometry">
            <mxPoint x="680" y="200" as="sourcePoint" />
            <mxPoint x="700" y="270" as="targetPoint" />
          </mxGeometry>
        </mxCell>
        <mxCell id="__iD03UM-kbbcVY5Mj3p-23" value="" style="endArrow=classic;startArrow=classic;html=1;strokeColor=#d6b656;fillColor=#fff2cc;fontColor=#E4FDE1;entryX=0;entryY=0.5;entryDx=0;entryDy=0;exitX=1;exitY=0.5;exitDx=0;exitDy=0;" parent="1" source="__iD03UM-kbbcVY5Mj3p-1" target="__iD03UM-kbbcVY5Mj3p-2" edge="1">
          <mxGeometry width="50" height="50" relative="1" as="geometry">
            <mxPoint x="660" y="480" as="sourcePoint" />
            <mxPoint x="710" y="430" as="targetPoint" />
          </mxGeometry>
        </mxCell>
        <mxCell id="__iD03UM-kbbcVY5Mj3p-26" value="" style="endArrow=classic;html=1;strokeColor=#d6b656;fillColor=#fff2cc;fontColor=#E4FDE1;exitX=1;exitY=0.5;exitDx=0;exitDy=0;entryX=0.5;entryY=1;entryDx=0;entryDy=0;" parent="1" source="__iD03UM-kbbcVY5Mj3p-3" target="__iD03UM-kbbcVY5Mj3p-2" edge="1">
          <mxGeometry width="50" height="50" relative="1" as="geometry">
            <mxPoint x="660" y="470" as="sourcePoint" />
            <mxPoint x="710" y="420" as="targetPoint" />
          </mxGeometry>
        </mxCell>
        <mxCell id="__iD03UM-kbbcVY5Mj3p-31" value="&lt;font color=&quot;#000000&quot;&gt;&amp;nbsp; http &amp;amp; WebSocket&amp;nbsp;&amp;nbsp;&lt;/font&gt;" style="edgeLabel;html=1;align=center;verticalAlign=middle;resizable=0;points=[];fontColor=#E4FDE1;" parent="1" vertex="1" connectable="0">
          <mxGeometry x="1090" y="230" as="geometry">
            <mxPoint x="-477" y="11" as="offset" />
          </mxGeometry>
        </mxCell>
        <mxCell id="__iD03UM-kbbcVY5Mj3p-32" value="&lt;font color=&quot;#000000&quot;&gt;&amp;nbsp; http&amp;nbsp;&amp;nbsp;&lt;/font&gt;" style="edgeLabel;html=1;align=center;verticalAlign=middle;resizable=0;points=[];fontColor=#E4FDE1;" parent="1" vertex="1" connectable="0">
          <mxGeometry x="780" y="240" as="geometry">
            <mxPoint x="-8" as="offset" />
          </mxGeometry>
        </mxCell>
        <mxCell id="__iD03UM-kbbcVY5Mj3p-33" value="" style="endArrow=classic;html=1;strokeColor=#d6b656;fillColor=#fff2cc;fontColor=#E4FDE1;entryX=0.5;entryY=0;entryDx=0;entryDy=0;exitX=0.75;exitY=1;exitDx=0;exitDy=0;" parent="1" source="__iD03UM-kbbcVY5Mj3p-9" target="__iD03UM-kbbcVY5Mj3p-4" edge="1">
          <mxGeometry width="50" height="50" relative="1" as="geometry">
            <mxPoint x="660" y="470" as="sourcePoint" />
            <mxPoint x="710" y="420" as="targetPoint" />
          </mxGeometry>
        </mxCell>
        <mxCell id="__iD03UM-kbbcVY5Mj3p-34" value="&lt;font color=&quot;#000000&quot;&gt;&amp;nbsp; http &amp;amp; WebSocket&amp;nbsp;&amp;nbsp;&lt;/font&gt;" style="edgeLabel;html=1;align=center;verticalAlign=middle;resizable=0;points=[];fontColor=#E4FDE1;" parent="1" vertex="1" connectable="0">
          <mxGeometry x="1420" y="230" as="geometry">
            <mxPoint x="-477" y="11" as="offset" />
          </mxGeometry>
        </mxCell>
        <mxCell id="__iD03UM-kbbcVY5Mj3p-36" value="&lt;br&gt;外部服务" style="rounded=1;whiteSpace=wrap;html=1;sketch=0;strokeColor=#028090;fillColor=#F45B69;fontColor=#E4FDE1;align=center;verticalAlign=top;" parent="1" vertex="1">
          <mxGeometry x="310" y="630" width="630" height="170" as="geometry" />
        </mxCell>
        <mxCell id="__iD03UM-kbbcVY5Mj3p-38" value="楼盘" style="rounded=1;whiteSpace=wrap;html=1;sketch=0;strokeColor=#b85450;fillColor=#f8cecc;align=center;" parent="1" vertex="1">
          <mxGeometry x="380" y="690" width="120" height="60" as="geometry" />
        </mxCell>
        <mxCell id="__iD03UM-kbbcVY5Mj3p-39" value="短信" style="rounded=1;whiteSpace=wrap;html=1;sketch=0;strokeColor=#b85450;fillColor=#f8cecc;align=center;" parent="1" vertex="1">
          <mxGeometry x="530" y="690" width="120" height="60" as="geometry" />
        </mxCell>
        <mxCell id="__iD03UM-kbbcVY5Mj3p-40" value="签章" style="rounded=1;whiteSpace=wrap;html=1;sketch=0;strokeColor=#b85450;fillColor=#f8cecc;align=center;" parent="1" vertex="1">
          <mxGeometry x="680" y="690" width="120" height="60" as="geometry" />
        </mxCell>
        <mxCell id="osJBwzkn9bfQyU7GrJJT-1" value="" style="endArrow=classic;startArrow=classic;html=1;strokeColor=#d6b656;fillColor=#fff2cc;fontColor=#E4FDE1;entryX=0.5;entryY=1;entryDx=0;entryDy=0;" edge="1" parent="1" source="__iD03UM-kbbcVY5Mj3p-3" target="__iD03UM-kbbcVY5Mj3p-1">
          <mxGeometry width="50" height="50" relative="1" as="geometry">
            <mxPoint x="700" y="570" as="sourcePoint" />
            <mxPoint x="750" y="520" as="targetPoint" />
          </mxGeometry>
        </mxCell>
      </root>
    </mxGraphModel>
  </diagram>
</mxfile>
